<?xml version="1.0" standalone="no"?>
<!DOCTYPE svg PUBLIC "-//W3C//DTD SVG 20010904//EN"
 "http://www.w3.org/TR/2001/REC-SVG-20010904/DTD/svg10.dtd">
<svg version="1.0" xmlns="http://www.w3.org/2000/svg"
 width="512.000000pt" height="512.000000pt" viewBox="0 0 512.000000 512.000000"
 preserveAspectRatio="xMidYMid meet">
<metadata>
Created by potrace 1.14, written by Peter Selinger 2001-2017
</metadata>
<g transform="translate(0.000000,512.000000) scale(0.100000,-0.100000)"
fill="#000000" stroke="none">
<path d="M2200 5070 c-116 -15 -260 -90 -336 -175 -30 -33 -54 -66 -54 -74 0
-7 -16 -31 -35 -52 -35 -39 -35 -40 -35 -131 l0 -92 36 -37 c25 -25 37 -49 41
-76 3 -27 17 -54 39 -79 30 -33 34 -44 34 -92 0 -46 -4 -58 -29 -83 -22 -22
-39 -29 -67 -29 -31 0 -46 -8 -81 -42 l-43 -42 0 -121 c0 -87 -4 -128 -15
-149 -18 -35 -21 -186 -3 -204 6 -6 13 -50 15 -99 2 -49 11 -104 19 -123 13
-32 21 -122 40 -469 3 -54 1 -103 -5 -115 -5 -12 -12 -52 -16 -90 -3 -38 -12
-81 -20 -97 -8 -15 -15 -36 -15 -45 0 -29 -90 -201 -129 -246 -20 -24 -48 -61
-62 -83 -15 -22 -52 -69 -83 -103 -59 -66 -66 -94 -28 -117 98 -60 125 -175
42 -183 -19 -2 -71 4 -116 13 l-81 17 -49 -27 c-27 -15 -56 -33 -64 -40 -24
-19 -183 -111 -264 -150 -98 -49 -201 -58 -291 -26 -60 22 -150 51 -237 77
-71 21 -82 18 -142 -42 -93 -94 -120 -172 -120 -344 1 -116 22 -252 43 -273 6
-6 11 -18 11 -28 0 -9 9 -28 20 -42 11 -14 20 -31 20 -37 0 -20 86 -100 107
-100 11 0 28 -9 38 -20 10 -11 26 -20 35 -20 9 0 25 -9 35 -20 10 -11 28 -20
41 -20 13 0 27 -6 31 -13 4 -8 25 -17 47 -20 21 -3 46 -13 56 -22 9 -8 26 -15
37 -15 11 0 28 -9 38 -20 10 -11 28 -20 40 -20 13 0 25 -7 29 -15 3 -8 16 -15
29 -15 13 0 32 -9 42 -20 12 -13 31 -20 55 -20 24 0 43 -7 55 -20 12 -13 31
-20 55 -20 21 0 43 -7 50 -15 6 -7 31 -17 55 -21 25 -3 50 -12 56 -20 6 -8 26
-14 44 -14 18 0 42 -9 55 -20 14 -12 37 -20 59 -20 24 0 42 -7 54 -20 12 -15
29 -20 66 -20 31 0 53 -5 61 -15 7 -8 28 -17 49 -20 20 -4 48 -13 63 -21 14
-8 34 -14 45 -14 10 0 35 -9 56 -20 20 -11 52 -20 71 -20 22 0 38 -6 44 -17 7
-11 28 -18 68 -21 33 -2 66 -10 74 -17 8 -7 32 -15 54 -18 21 -3 46 -13 56
-22 10 -9 36 -15 67 -15 36 0 57 -6 73 -20 14 -12 37 -20 60 -20 21 0 43 -6
49 -14 6 -7 38 -16 70 -20 33 -4 65 -13 71 -21 21 -25 151 -19 244 10 151 49
225 91 381 221 44 36 105 87 135 112 77 63 279 270 314 320 28 40 28 43 12 67
-10 15 -16 40 -14 58 3 30 6 32 63 43 86 17 138 75 257 282 16 28 29 70 34
107 7 63 39 147 79 205 13 19 33 73 45 119 28 112 23 122 -78 147 -66 16 -77
22 -80 42 -8 53 63 93 181 102 51 4 82 12 88 21 5 8 9 42 9 77 0 35 9 105 20
155 28 134 48 363 59 688 11 312 9 329 -46 406 -13 17 -23 35 -23 40 0 5 -16
29 -36 52 -26 30 -37 52 -36 73 1 40 8 46 57 50 l40 3 3 60 c3 57 6 62 58 116
30 32 54 66 54 76 0 10 12 31 27 48 23 27 31 29 82 28 54 -2 257 -43 303 -63
37 -15 170 -42 208 -42 48 0 90 49 162 193 90 178 100 227 101 524 3 333 -8
363 -143 400 -36 9 -125 21 -199 27 -87 6 -141 14 -155 23 -15 11 -53 15 -148
15 -96 0 -129 3 -135 14 -6 10 -64 14 -262 19 -209 5 -256 9 -270 21 -14 13
-45 16 -159 16 -130 0 -144 2 -159 20 -16 18 -30 20 -177 20 -132 0 -162 3
-177 16 -14 13 -50 17 -166 22 -99 3 -151 9 -158 17 -6 8 -51 15 -118 18 -73
4 -114 11 -129 21 -18 13 -49 16 -148 15 -69 -1 -150 -5 -180 -9z m240 -140
c112 -13 229 -30 280 -42 25 -5 104 -14 175 -19 72 -5 144 -15 160 -21 17 -6
100 -14 185 -18 108 -5 166 -12 192 -24 27 -11 67 -16 141 -16 78 0 118 -5
162 -20 51 -18 84 -20 272 -20 180 0 219 -3 246 -17 22 -11 72 -18 158 -23
116 -7 127 -9 151 -33 l25 -25 -38 -67 c-22 -36 -39 -70 -39 -74 0 -4 -13 -20
-30 -36 -41 -40 -54 -79 -31 -99 25 -23 76 -36 141 -36 73 0 96 -7 114 -36 12
-18 14 -29 5 -51 -11 -29 -47 -260 -51 -333 -4 -55 -5 -55 -182 -3 -26 8 -85
17 -131 20 -73 5 -87 3 -130 -18 -51 -25 -125 -103 -125 -131 0 -9 -24 -43
-54 -74 -31 -33 -59 -73 -65 -96 -7 -22 -23 -45 -39 -56 -42 -27 -59 -52 -72
-109 -11 -45 -11 -61 4 -115 10 -35 30 -76 45 -93 41 -46 83 -139 84 -188 5
-246 -33 -733 -68 -884 -8 -34 -15 -73 -15 -87 0 -32 -32 -51 -125 -75 -38
-10 -100 -64 -133 -116 -37 -57 -36 -143 1 -202 29 -46 62 -73 89 -73 22 0 25
-42 4 -59 -8 -7 -18 -25 -21 -41 -3 -16 -13 -34 -21 -41 -8 -6 -14 -19 -14
-28 0 -9 -9 -42 -20 -74 -11 -31 -20 -74 -20 -96 0 -25 -5 -41 -15 -45 -8 -3
-15 -11 -15 -18 0 -8 -9 -21 -20 -31 -11 -9 -20 -25 -20 -36 0 -10 -7 -21 -15
-25 -8 -3 -15 -11 -15 -18 0 -18 -58 -68 -78 -68 -8 0 -39 -11 -68 -25 -69
-33 -104 -96 -104 -186 l0 -60 -100 -100 c-54 -54 -106 -99 -113 -99 -8 0 -39
-24 -68 -54 -80 -79 -100 -90 -156 -81 -26 4 -60 13 -76 21 -21 11 -36 12 -64
5 -30 -9 -42 -7 -74 12 -26 15 -39 29 -39 43 0 12 -7 24 -15 28 -18 7 -20 36
-2 36 29 0 37 53 37 242 0 182 -1 189 -22 208 -13 12 -30 27 -39 35 -9 8 -27
15 -40 15 -13 0 -37 7 -54 16 -16 8 -52 18 -80 21 -27 3 -62 12 -77 19 -15 8
-42 14 -60 14 -18 0 -53 9 -77 20 -24 11 -56 20 -72 20 -15 0 -51 9 -79 20
-28 11 -64 20 -81 20 -16 0 -42 6 -57 14 -15 7 -48 16 -75 19 -26 4 -61 13
-77 22 -16 8 -44 15 -62 15 -18 0 -53 9 -77 20 -24 11 -59 20 -78 20 -19 0
-48 7 -64 16 -17 8 -53 18 -82 21 -29 3 -61 12 -72 18 -11 7 -44 15 -73 18
-29 4 -62 13 -74 22 -13 8 -42 15 -65 15 -24 0 -60 9 -80 20 -21 11 -52 20
-70 20 -38 0 -52 16 -20 24 12 3 45 20 72 38 28 18 77 46 110 63 33 16 71 40
85 53 23 22 30 23 85 16 71 -9 156 -9 207 1 l37 7 24 -54 c35 -78 83 -96 157
-58 22 11 46 20 54 20 9 0 77 31 151 69 75 39 143 67 151 64 7 -3 19 -24 25
-47 6 -22 26 -80 45 -128 19 -48 34 -95 34 -104 0 -8 13 -29 29 -45 25 -25 33
-27 58 -19 15 5 47 14 70 20 53 13 103 62 103 100 0 16 -15 57 -33 92 -18 35
-49 102 -70 150 -45 105 -42 119 40 179 61 45 269 255 290 292 8 15 8 26 1 34
-12 15 -101 43 -132 43 -13 0 -65 -43 -133 -108 -61 -59 -123 -114 -138 -122
-45 -24 -51 -16 -129 202 -40 109 -86 139 -158 102 -84 -42 -85 -59 -17 -259
63 -184 63 -210 -1 -244 -25 -14 -92 -42 -150 -62 -58 -21 -129 -47 -158 -58
-64 -26 -72 -16 -48 56 9 25 16 56 16 67 0 33 -39 149 -57 168 -15 16 -13 21
21 58 20 22 36 44 36 49 0 5 22 35 48 66 85 100 179 324 205 490 21 131 5 505
-28 660 -41 192 -47 333 -24 525 l14 114 46 13 c53 15 108 62 138 119 16 29
21 57 21 115 0 84 -14 135 -53 192 -14 21 -29 52 -32 70 -4 18 -18 46 -31 64
-30 39 -31 91 -4 126 11 14 20 31 20 37 0 20 145 183 172 193 21 9 266 6 348
-3z m-2139 -3390 c10 -6 38 -15 61 -20 24 -5 66 -16 93 -25 28 -9 70 -23 95
-31 25 -8 74 -14 110 -14 39 0 77 -6 95 -16 16 -8 50 -18 75 -21 25 -3 56 -11
70 -18 14 -7 47 -16 75 -20 27 -4 62 -13 77 -21 15 -8 41 -14 57 -14 17 0 53
-9 81 -20 28 -11 65 -20 83 -20 18 0 42 -6 53 -14 11 -8 42 -17 69 -21 28 -4
62 -14 77 -21 15 -8 41 -14 57 -14 17 0 53 -9 81 -20 28 -11 63 -20 78 -20 15
0 40 -7 57 -16 16 -8 50 -18 75 -21 25 -3 56 -11 70 -18 14 -7 47 -16 75 -20
27 -4 61 -13 75 -20 14 -7 45 -15 70 -18 25 -3 59 -13 75 -21 17 -9 41 -16 54
-16 28 0 181 -50 181 -60 0 -3 -24 -27 -52 -52 -98 -85 -157 -224 -158 -369 0
-71 -13 -123 -39 -152 -14 -17 -26 -18 -101 -12 -73 6 -137 18 -200 38 -8 2
-40 12 -70 20 -116 33 -207 61 -265 83 -33 12 -105 36 -160 54 -55 17 -136 46
-180 64 -44 18 -107 43 -140 55 -33 13 -91 36 -130 51 -38 16 -115 45 -170 65
-55 20 -104 40 -110 45 -5 4 -44 17 -85 30 -78 23 -124 42 -225 92 -65 32
-106 83 -120 148 -4 19 -12 41 -18 48 -6 8 -13 54 -15 103 -4 75 -1 99 18 151
22 61 54 108 72 108 5 0 18 -5 29 -10z"/>
<path d="M2872 3621 c-17 -10 60 -91 87 -91 44 0 34 30 -25 70 -48 34 -44 33
-62 21z"/>
<path d="M3320 3165 c0 -7 5 -17 11 -20 5 -4 14 -18 19 -31 13 -34 50 -33 50
1 0 15 -6 25 -15 25 -7 0 -18 6 -22 13 -12 20 -43 29 -43 12z"/>
<path d="M3476 2681 c-9 -9 -16 -30 -16 -44 0 -22 5 -27 25 -27 22 0 25 4 25
39 0 47 -11 57 -34 32z"/>
<path d="M3306 2168 c-21 -30 -20 -38 4 -38 12 0 24 9 29 23 16 40 -8 51 -33
15z"/>
<path d="M2717 1961 c-76 -8 -98 -38 -55 -75 18 -16 31 -18 96 -12 89 8 112
19 112 49 0 47 -21 52 -153 38z"/>
</g>
</svg>
